<?xml version="1.0" encoding="UTF-8" standalone="no"?>
<!DOCTYPE svg PUBLIC "-//W3C//DTD SVG 1.1//EN" "http://www.w3.org/Graphics/SVG/1.1/DTD/svg11.dtd">
<svg width="100%" height="100%" viewBox="0 0 1080 1080" version="1.1" xmlns="http://www.w3.org/2000/svg" xmlns:xlink="http://www.w3.org/1999/xlink" xml:space="preserve" xmlns:serif="http://www.serif.com/" style="fill-rule:evenodd;clip-rule:evenodd;stroke-linejoin:round;stroke-miterlimit:2;">
    <g transform="matrix(1.104,0,0,1.07975,-67.2016,-28.1682)">
        <ellipse cx="630.793" cy="347.058" rx="57.971" ry="59.273" style="fill:rgb(203,166,247);"/>
    </g>
    <g transform="matrix(1,0,0,1,-14.5213,0.668006)">
        <ellipse cx="490.568" cy="662.92" rx="90.746" ry="93.913" style="fill:rgb(203,166,247);"/>
    </g>
    <g transform="matrix(1.05499,0,0,1.03289,-44.5396,-30.3932)">
        <ellipse cx="790.401" cy="860.943" rx="56.872" ry="58.09" style="fill:rgb(203,166,247);"/>
    </g>
    <g transform="matrix(1.08378,0,0,1.03596,-52.3587,-36.9858)">
        <ellipse cx="622.745" cy="986.486" rx="46.135" ry="48.265" style="fill:rgb(203,166,247);"/>
    </g>
    <g transform="matrix(3.58296,0,0,3.58296,-2065.21,-3086.08)">
        <path d="M613.8,862.6C607.6,865.9 608,857.3 608,1003.5C608,1116.4 608.2,1137.5 609.4,1139.8C610.8,1142.6 624.5,1151.3 639.6,1159.1C646.1,1162.5 647.3,1162.8 650.1,1161.8C651.8,1161.2 654,1159.3 655.1,1157.6C656.9,1154.7 657,1152 657,1113.6L657,1072.7L662,1079.8C670.1,1091.3 682.6,1100.1 695.7,1103.5C703,1105.4 718,1105.4 725.3,1103.5C740.1,1099.7 754.9,1089 763.7,1075.8C766.1,1072 768.8,1069 769.6,1069C771.4,1069 781.6,1064.8 788.5,1061.3C796.8,1057 804.9,1051.1 813.3,1043.1C837.5,1020 848.3,992.5 845.9,959.7C844.1,935.1 831.6,910.3 811.3,890.9C795.2,875.5 778,866.5 757.1,862.6C745,860.3 618,860.3 613.8,862.6M743.9,907.1C768.8,911.1 789.6,928.3 796.6,950.7C802.2,968.7 797.3,990.9 784.4,1006C779.3,1011.9 768.6,1021 766.7,1021C766,1021 764,1018.4 762.1,1015.3C755.8,1004.8 748,997.9 736.4,992.1C726.6,987.2 719,985.7 707,986.3C687.5,987.1 673.8,994.9 659.8,1013L657.1,1016.5L657,961.2L657,906L697.3,906C720.4,906 740.2,906.5 743.9,907.1M717.3,1025C727,1028.7 732.9,1036.8 733,1046.8C733,1053.1 731.4,1057.4 727,1062.4C717.6,1073 701.3,1073.2 692.5,1062.8C682.6,1051.1 685.9,1032.6 698.9,1026.4C706.618,1022.72 710.426,1023.24 717.3,1025" style="fill:rgb(205,214,244);fill-rule:nonzero;"/>
    </g>
</svg>
